<svg width="100" height="38" viewBox="0 0 100 38" fill="none" xmlns="http://www.w3.org/2000/svg">
<path d="M12.0038 29.1474C11.3505 29.1474 10.7233 29.0559 10.1223 28.873C9.54745 28.6901 9.05096 28.3112 8.63287 27.7363C8.2409 27.1353 8.04492 26.2207 8.04492 24.9925V22.6799C8.04492 21.3995 8.41076 20.3804 9.14242 19.6226C9.90022 18.8387 11.0239 18.1462 12.5133 17.5452C13.3756 17.1793 14.055 16.8527 14.5515 16.5653C15.0742 16.2778 15.4531 15.9381 15.6882 15.5462C15.9234 15.1542 16.041 14.6185 16.041 13.9391V12.9592C16.041 12.4627 15.9365 12.0838 15.7274 11.8225C15.5445 11.5612 15.2963 11.3783 14.9827 11.2737C14.6953 11.1431 14.3556 11.0778 13.9636 11.0778C13.1013 11.0778 12.5264 11.3391 12.2389 11.8617C11.9776 12.3843 11.847 13.2205 11.847 14.3703V16.0165H8.51528V14.0175C8.51528 13.0506 8.64593 12.2014 8.90724 11.4697C9.16855 10.7119 9.69117 10.124 10.4751 9.70587C11.259 9.26165 12.4219 9.03953 13.9636 9.03953C15.5576 9.03953 16.7596 9.19632 17.5697 9.50989C18.4059 9.82346 18.9807 10.3069 19.2943 10.9602C19.6079 11.5873 19.7647 12.3974 19.7647 13.3903V28.8338H16.0802V26.5996C15.8189 27.4097 15.2963 28.0368 14.5123 28.481C13.7545 28.9253 12.9183 29.1474 12.0038 29.1474ZM13.5324 26.678C14.4209 26.678 15.048 26.3644 15.4139 25.7373C15.8058 25.084 16.0018 24.1825 16.0018 23.0327V17.5844C15.8189 17.898 15.4923 18.1854 15.0219 18.4467C14.5515 18.708 14.0942 18.9824 13.65 19.2698C12.9967 19.6618 12.5003 20.0799 12.1606 20.5241C11.8208 20.9422 11.651 21.5302 11.651 22.288V24.1302C11.651 24.8357 11.7294 25.3845 11.8862 25.7765C12.0691 26.1423 12.3043 26.3905 12.5917 26.5212C12.9053 26.6257 13.2189 26.678 13.5324 26.678Z" fill="white"></path>
<path d="M30.9831 28.8338L26.9851 17.5844L31.3359 9.4315H34.9812L30.5128 17.6236L34.9812 28.8338H30.9831ZM22.8695 28.8338V4.02237H26.5539V28.8338H22.8695Z" fill="white"></path>
<path d="M37.1088 28.8338V4.13996H40.5581V11.3129C40.8978 10.6074 41.3681 10.0586 41.9692 9.66668C42.5963 9.27471 43.3802 9.07873 44.3209 9.07873C45.6014 9.07873 46.5551 9.30084 47.1823 9.74507C47.8356 10.1893 48.2667 10.8034 48.4758 11.5873C48.6848 12.3451 48.7893 13.2205 48.7893 14.2135V28.8338H45.1049V14.4879C45.1049 14.1743 45.0918 13.8607 45.0657 13.5471C45.0395 13.2074 44.9612 12.9069 44.8305 12.6456C44.6998 12.3582 44.4777 12.1361 44.1642 11.9793C43.8767 11.7964 43.4586 11.7049 42.9099 11.7049C42.4395 11.7049 42.0476 11.7833 41.734 11.9401C41.4204 12.0707 41.1852 12.2406 41.0284 12.4496C40.8978 12.6325 40.8194 12.7893 40.7933 12.92V28.8338H37.1088Z" fill="white"></path>
<path d="M51.884 28.8338V9.4315H55.5685V28.8338H51.884Z" fill="white"></path>
<path d="M58.9271 28.8338V4.02237H62.6116V28.8338H58.9271Z" fill="white"></path>
<path d="M70.2819 29.1082C68.9753 29.1082 67.9954 28.8861 67.3421 28.4418C66.715 27.9976 66.2969 27.3966 66.0878 26.6388C65.9049 25.8549 65.8135 24.9664 65.8135 23.9734V9.4315H69.4979V23.699C69.4979 24.1694 69.5241 24.6136 69.5763 25.0317C69.6547 25.4498 69.8376 25.8026 70.1251 26.09C70.4387 26.3514 70.9351 26.482 71.6145 26.482C72.111 26.482 72.503 26.4036 72.7904 26.2468C73.0779 26.09 73.3 25.9071 73.4568 25.6981C73.6136 25.4629 73.7181 25.2408 73.7704 25.0317V9.4315H77.4548V28.8338H74.3191L74.0447 26.5996C73.8095 27.279 73.3653 27.867 72.712 28.3634C72.0849 28.8599 71.2748 29.1082 70.2819 29.1082Z" fill="white"></path>
<path d="M79.2925 28.8338L83.3689 18.6819L79.998 9.4315H83.4865L85.7991 15.8597L88.4252 9.4315H91.8353L88.1509 18.6819L91.9529 28.8338H88.4252L85.7991 21.8176L82.9377 28.8338H79.2925Z" fill="white" fill-opacity="0.5"></path>
<path d="M65.8117 31.2854H78.4008V33.8985H65.8117V31.2854Z" fill="white"></path>
<path d="M78.4008 31.2854H91.9554V33.8985H78.4008V31.2854Z" fill="white" fill-opacity="0.5"></path>
<path d="M51.8842 4.02238H55.5683V7.70662H51.8842V4.02238Z" fill="white" fill-opacity="0.5"></path>
</svg>